<?xml version="1.0" standalone="no"?>
<!DOCTYPE svg PUBLIC "-//W3C//DTD SVG 20010904//EN" "http://www.w3.org/TR/2001/REC-SVG-20010904/DTD/svg10.dtd">
<!-- Created using Krita: http://krita.org -->
<svg xmlns="http://www.w3.org/2000/svg" 
    xmlns:xlink="http://www.w3.org/1999/xlink"
    xmlns:krita="http://krita.org/namespaces/svg/krita"
    xmlns:sodipodi="http://sodipodi.sourceforge.net/DTD/sodipodi-0.dtd"
    width="259.2pt"
    height="259.2pt"
    viewBox="0 0 259.2 259.2">
<defs>
  <linearGradient id="gradient0" gradientUnits="objectBoundingBox" x1="0" y1="0" x2="1" y2="1" spreadMethod="pad">
   <stop stop-color="#c18aee" offset="0" stop-opacity="1"/>
   <stop stop-color="#000000" offset="1" stop-opacity="0"/>
  </linearGradient>
  <linearGradient id="gradient1" gradientUnits="objectBoundingBox" x1="0" y1="0" x2="1" y2="1" spreadMethod="pad">
   <stop stop-color="#ffffff" offset="0" stop-opacity="0.901960784313726"/>
   <stop stop-color="#c18aee" offset="0.133884" stop-opacity="1"/>
   <stop stop-color="#ff4040" offset="0.517355" stop-opacity="0.250980392156863"/>
   <stop stop-color="#ff4040" offset="1" stop-opacity="0"/>
  </linearGradient>
 </defs>
<path id="shape0" transform="matrix(0.981588023297031 -0.191010346630298 0.191010346630298 0.981588023297031 32.3008482391799 121.294357711531)" fill="none" d="M0.72 9.72001L0 0"/><path id="shape1" transform="matrix(0.981588023297031 -0.191010346630298 0.191010346630298 0.981588023297031 22.0740210951212 67.3271021112082)" fill="#b17dff" fill-rule="evenodd" stroke="#000000" stroke-opacity="0" stroke-width="0" stroke-linecap="square" stroke-linejoin="bevel" d="M26.3941 0L0 16.9715L11.8794 16.2078L13.0673 28.3418L26.3941 0"/><path id="shape0" transform="matrix(-0.999573378843234 0.029207137839191 -0.029207137839191 -0.999573378843234 228.015925762634 205.178474802931)" fill="#ba95f4" fill-rule="evenodd" stroke="#000000" stroke-opacity="0" stroke-width="0" stroke-linecap="square" stroke-linejoin="bevel" d="M26.3941 0L0 16.9715L11.8794 16.2078L13.0673 28.3418L26.3941 0"/><ellipse id="shape2" transform="translate(24.3698252669349, 24.4799999436792)" rx="105.227749386413" ry="105.12059281881" cx="105.227749386413" cy="105.12059281881" fill="url(#gradient0)" fill-rule="evenodd" stroke="url(#gradient1)" stroke-width="4.32" stroke-linecap="square" stroke-linejoin="bevel"/><path id="shape3" transform="translate(45.5484767272424, 70.4269634212047)" fill="#fb3b02" fill-rule="evenodd" stroke="#000000" stroke-opacity="0" stroke-width="0" stroke-linecap="square" stroke-linejoin="bevel" d="M34.1379 1.08808L52.6755 59.2578L84.0515 59.173L84.0515 153.86L1.50667 93.8543L0 89.3342C5.83583 72.8409 15.4785 43.6115 28.9282 1.64577C30.6119 -0.34353 32.3485 -0.529427 34.1379 1.08808Z"/><path id="shape4" transform="translate(45.5484767272424, 129.6)" fill="#fea711" fill-rule="evenodd" stroke="#000000" stroke-opacity="0" stroke-width="0" stroke-linecap="square" stroke-linejoin="bevel" d="M10.2847 0L84.0515 94.7296L1.50667 34.6812L0 29.835C0.0243486 29.835 3.45257 19.89 10.2847 0Z"/><path id="shape5" transform="matrix(8.62154376549335 0 0 8.64859950800814 129.598680750154 67.2845779845848)" fill="#000000" stroke="#000000" stroke-opacity="0" stroke-width="0" stroke-linecap="square" stroke-linejoin="bevel" d="M0.000153018 18.1609C0.0323943 17.6955 -0.00257092 0.914757 0.000153018 0.857414C1.02015 0.862414 2.02146 0.991693 2.98046 1.25769C5.27146 -0.294307 6.27746 0.0276925 6.27746 0.0276925C6.93046 1.68069 6.51946 2.90169 6.39546 3.20369C7.16546 4.04369 7.63046 5.11469 7.63046 6.42469C7.63046 11.0337 4.82346 12.0487 2.15146 12.3457C2.58146 12.7177 2.97446 13.4477 2.97446 14.5677L2.97446 17.8607C2.97446 18.1797 1.81131 17.9944 0.000153018 18.1609Z"/>
</svg>
